<svg xmlns="http://www.w3.org/2000/svg" width="230" height="230" viewBox="0 0 230 230" version="1.1"><path d="M -0 115.004 L -0 230.008 115.250 229.754 L 230.500 229.500 230.754 114.750 L 231.008 -0 115.504 -0 L 0 0 -0 115.004 M 0.483 115.500 C 0.483 178.750, 0.603 204.478, 0.750 172.673 C 0.896 140.868, 0.896 89.118, 0.750 57.673 C 0.603 26.228, 0.483 52.250, 0.483 115.500 M 175.038 24.750 C 172.863 36.080, 169.992 47.282, 167.287 55 C 165.544 59.969, 161.202 69, 160.554 69 C 160.328 69, 156.349 65.181, 151.713 60.514 C 142.349 51.086, 135.953 47.440, 122.942 44.113 C 98.575 37.881, 79.294 42.089, 62.937 57.207 C 56.950 62.740, 53.197 68.342, 47.550 80.170 C 38.918 98.251, 38.234 101.046, 34.979 131.500 C 32.339 156.196, 26.905 173.052, 16.868 187.680 C 15.291 189.979, 14 192.319, 14 192.879 C 14 194.565, 26.124 199.815, 36.120 202.458 C 44.149 204.581, 61.958 208.222, 75.282 210.466 C 86.080 212.284, 105.906 213.963, 116.782 213.980 C 129.360 214, 137.793 212.239, 143.873 208.322 C 146.215 206.813, 146.124 206.733, 136.889 202.147 C 125.773 196.626, 121.811 192.221, 119.965 183.332 C 117.216 170.089, 121.912 160.721, 136.061 151.225 C 146.687 144.093, 155.513 143.491, 166.171 149.172 C 179.816 156.444, 185.087 169.424, 180.537 184.544 C 179.732 187.219, 179.258 189.592, 179.484 189.818 C 179.711 190.044, 182.057 189.190, 184.698 187.919 C 194.988 182.970, 205.777 167.581, 209.473 152.584 C 211.419 144.683, 210.980 129.302, 208.356 113.500 C 206.427 101.883, 204.100 96.771, 198.248 91.293 C 193.838 87.165, 180.690 79.964, 174.915 78.515 C 169.799 77.231, 169.716 74.960, 174.451 65.758 C 180.144 54.695, 185.437 47.169, 192.907 39.518 C 196.258 36.085, 199 32.851, 199 32.331 C 199 31.230, 187.979 23.018, 183.300 20.632 C 177.519 17.684, 176.275 18.304, 175.038 24.750" stroke="none" fill="#d90615" fill-rule="evenodd"/><path d="M 175.038 24.750 C 172.863 36.080, 169.992 47.282, 167.287 55 C 165.544 59.969, 161.202 69, 160.554 69 C 160.328 69, 156.349 65.181, 151.713 60.514 C 142.349 51.086, 135.953 47.440, 122.942 44.113 C 98.575 37.881, 79.294 42.089, 62.937 57.207 C 56.950 62.740, 53.197 68.342, 47.550 80.170 C 38.918 98.251, 38.234 101.046, 34.979 131.500 C 32.339 156.196, 26.905 173.052, 16.868 187.680 C 15.291 189.979, 14 192.319, 14 192.879 C 14 194.565, 26.124 199.815, 36.120 202.458 C 44.149 204.581, 61.958 208.222, 75.282 210.466 C 86.080 212.284, 105.906 213.963, 116.782 213.980 C 129.360 214, 137.793 212.239, 143.873 208.322 C 146.215 206.813, 146.124 206.733, 136.889 202.147 C 125.773 196.626, 121.811 192.221, 119.965 183.332 C 117.216 170.089, 121.912 160.721, 136.061 151.225 C 146.687 144.093, 155.513 143.491, 166.171 149.172 C 179.816 156.444, 185.087 169.424, 180.537 184.544 C 179.732 187.219, 179.258 189.592, 179.484 189.818 C 179.711 190.044, 182.057 189.190, 184.698 187.919 C 194.988 182.970, 205.777 167.581, 209.473 152.584 C 211.419 144.683, 210.980 129.302, 208.356 113.500 C 206.427 101.883, 204.100 96.771, 198.248 91.293 C 193.838 87.165, 180.690 79.964, 174.915 78.515 C 169.799 77.231, 169.716 74.960, 174.451 65.758 C 180.144 54.695, 185.437 47.169, 192.907 39.518 C 196.258 36.085, 199 32.851, 199 32.331 C 199 31.230, 187.979 23.018, 183.300 20.632 C 177.519 17.684, 176.275 18.304, 175.038 24.750" stroke="none" fill="#fbf8f8" fill-rule="evenodd"/></svg>